<?xml version="1.0" encoding="utf-8"?>
<!-- Generator: Adobe Illustrator 16.0.0, SVG Export Plug-In . SVG Version: 6.00 Build 0)  -->
<!DOCTYPE svg PUBLIC "-//W3C//DTD SVG 1.0//EN" "http://www.w3.org/TR/2001/REC-SVG-20010904/DTD/svg10.dtd">
<svg version="1.0" id="Layer_1" xmlns="http://www.w3.org/2000/svg" xmlns:xlink="http://www.w3.org/1999/xlink" x="0px" y="0px"
	 width="40px" height="40px" viewBox="0 0 40 40" enable-background="new 0 0 40 40" xml:space="preserve">
<g>
	<path fill="#28CD91" d="M12.696,27.272c0,2.54,0.56,2.376,2.315,2.491v1.181H8.446L8.4,29.738c1.778-0.093,2.032,0.028,2.032-2.304
		v-2.703c0-0.719-0.03-3.136-0.169-3.616c-0.256-0.881-0.217-0.701-1.863-0.701v-1.172l4.038-0.674l0.327,3.022h0.092
		c0.832-1.848,2.448-3.118,4.019-3.118c0.493,0,0.889,0.125,1.164,0.351c0.277,0.229-0.83,2.161-0.91,2.144
		c-0.894-0.188-1.27-0.577-1.824-0.577c-0.832,0-1.755,1.2-2.217,2.817c-0.254,0.877-0.393,2.056-0.393,3.279V27.272z"/>
	<path fill="#28CD91" d="M28.454,29.127h-0.092c-1.108,1.548-2.286,2.171-3.973,2.171c-3.486,0-5.543-2.602-5.543-6.32
		c0-3.648,2.618-6.158,5.543-6.382c1.451-0.111,2.587,0.485,3.649,1.547v-2.355c0-1.732-0.115-3.2-0.152-3.624
		c-0.166-1.889-0.763-1.465-2.356-1.465l0.016-1.271l4.695-0.731l0.016,14.528c0,2.124-0.04,3.19,0.104,3.767
		c0.185,0.738,0.241,0.591,1.928,0.567v1.485l-3.835,0.254V29.127z M27.993,24.022c0-1.616-0.139-2.286-0.624-2.909
		c-0.692-0.924-1.75-1.063-2.812-1.05c-2.065,0.026-3.567,2.284-3.563,4.745c0.008,3.257,1.5,4.904,3.717,4.904
		c1.085,0,2.081-0.055,2.682-0.979c0.438-0.669,0.601-1.524,0.601-3.188V24.022z"/>
</g>
<g>
	<path fill="#2B2B2B" d="M13.312,25.657c0,2.54,0.56,2.376,2.315,2.49v1.182H9.062l-0.046-1.207
		c1.779-0.092,2.033,0.028,2.033-2.304v-2.703c0-0.718-0.03-3.135-0.169-3.615c-0.256-0.882-0.216-0.703-1.863-0.703v-1.171
		l4.038-0.674l0.327,3.022h0.092c0.832-1.848,2.448-3.118,4.019-3.118c0.493,0,0.889,0.125,1.164,0.351
		c0.278,0.228-0.83,2.16-0.91,2.144c-0.894-0.187-1.27-0.577-1.824-0.577c-0.832,0-1.755,1.2-2.217,2.817
		c-0.254,0.878-0.393,2.056-0.393,3.279V25.657z"/>
	<path fill="#2B2B2B" d="M29.07,27.512h-0.091c-1.109,1.547-2.287,2.171-3.974,2.171c-3.486,0-5.543-2.603-5.543-6.32
		c0-3.649,2.618-6.159,5.543-6.383c1.451-0.111,2.586,0.485,3.649,1.547v-2.355c0-1.732-0.115-3.2-0.152-3.624
		c-0.166-1.889-0.763-1.466-2.356-1.466l0.015-1.27l4.696-0.731l0.015,14.527c0,2.124-0.039,3.19,0.104,3.767
		c0.186,0.739,0.242,0.591,1.928,0.567v1.485l-3.834,0.255V27.512z M28.608,22.407c0-1.616-0.138-2.287-0.623-2.91
		c-0.693-0.924-1.75-1.063-2.812-1.049c-2.065,0.026-3.567,2.284-3.563,4.745c0.006,3.257,1.498,4.904,3.716,4.904
		c1.085,0,2.081-0.054,2.681-0.978c0.439-0.67,0.601-1.524,0.601-3.188V22.407z"/>
</g>
</svg>
