<?xml version="1.0" encoding="utf-8"?>
<!-- Generator: Adobe Illustrator 16.0.0, SVG Export Plug-In . SVG Version: 6.00 Build 0)  -->
<!DOCTYPE svg PUBLIC "-//W3C//DTD SVG 1.1//EN" "http://www.w3.org/Graphics/SVG/1.1/DTD/svg11.dtd">
<svg version="1.1" id="Layer_1" xmlns="http://www.w3.org/2000/svg" xmlns:xlink="http://www.w3.org/1999/xlink" x="0px" y="0px"
	 width="250px" height="200.5px" viewBox="0 46.5 250 200.5" enable-background="new 0 46.5 250 200.5" xml:space="preserve">
<g>
	<path fill="#28CD91" d="M51.299,204.15c0,16.5,3.635,15.434,15.035,16.184V228H23.7l-0.3-7.836
		c11.55-0.6,13.199,0.188,13.199-14.963V187.65c0-4.668-0.193-20.365-1.099-23.482c-1.664-5.729-1.407-4.564-12.1-4.564V152
		l26.225-4.375l2.124,19.629h0.6c5.4-12,15.899-20.25,26.099-20.25c3.203,0,5.777,0.813,7.557,2.275
		c1.804,1.482-5.388,14.031-5.907,13.924c-5.809-1.213-8.25-3.75-11.85-3.75c-5.4,0-11.399,7.801-14.399,18.299
		c-1.65,5.701-2.55,13.35-2.55,21.299V204.15L51.299,204.15z"/>
	<path fill="#28CD91" d="M153.646,216.195h-0.601c-7.2,10.051-14.851,14.1-25.8,14.1c-22.648,0-35.997-16.895-35.997-41.045
		c0-23.699,17-40,35.997-41.451c9.423-0.719,16.8,3.15,23.699,10.049v-15.299c0-11.25-0.747-20.78-0.99-23.534
		c-1.081-12.265-4.952-9.519-15.303-9.519l0.097-8.246l30.5-4.75l0.096,94.348c0,13.799-0.256,20.723,0.681,24.465
		c1.199,4.799,1.569,3.838,12.52,3.688v9.645l-24.898,1.65V216.195L153.646,216.195z M150.646,183.047
		c0-10.5-0.9-14.85-4.051-18.898c-4.5-6-11.363-6.9-18.264-6.813c-13.414,0.168-23.166,14.832-23.135,30.813
		c0.042,21.15,9.735,31.854,24.135,31.854c7.05,0,13.514-0.354,17.414-6.354c2.85-4.35,3.898-9.9,3.898-20.699v-9.902H150.646z"/>
</g>
<g>
	<path fill="#2B2B2B" d="M55.299,200.15c0,16.5,3.635,15.434,15.035,16.184V224H27.7l-0.3-7.836
		c11.55-0.6,13.199,0.188,13.199-14.963V183.65c0-4.668-0.193-20.365-1.099-23.482c-1.664-5.729-1.407-4.564-12.1-4.564V148
		l26.225-4.375l2.124,19.629h0.6c5.4-12,15.899-20.25,26.099-20.25c3.203,0,5.777,0.813,7.557,2.275
		c1.804,1.482-5.388,14.031-5.907,13.924c-5.809-1.213-8.25-3.75-11.85-3.75c-5.4,0-11.399,7.801-14.399,18.299
		c-1.65,5.701-2.55,13.35-2.55,21.299V200.15L55.299,200.15z"/>
	<path fill="#2B2B2B" d="M157.646,212.195h-0.601c-7.2,10.051-14.851,14.1-25.8,14.1c-22.648,0-35.997-16.895-35.997-41.045
		c0-23.699,17-40,35.997-41.451c9.423-0.719,16.8,3.15,23.699,10.049v-15.299c0-11.25-0.747-20.78-0.99-23.534
		c-1.081-12.265-4.952-9.519-15.303-9.519l0.097-8.246l30.5-4.75l0.096,94.348c0,13.799-0.256,20.723,0.681,24.465
		c1.199,4.799,1.569,3.838,12.52,3.688v9.645l-24.898,1.65V212.195L157.646,212.195z M154.646,179.047
		c0-10.5-0.9-14.85-4.051-18.898c-4.5-6-11.363-6.9-18.264-6.813c-13.414,0.168-23.166,14.832-23.135,30.813
		c0.042,21.15,9.735,31.854,24.135,31.854c7.05,0,13.514-0.354,17.414-6.354c2.85-4.35,3.898-9.9,3.898-20.699v-9.902H154.646z"/>
</g>
</svg>
