<?xml version="1.0" encoding="utf-8"?>
<!-- Generator: Adobe Illustrator 16.0.0, SVG Export Plug-In . SVG Version: 6.00 Build 0)  -->
<!DOCTYPE svg PUBLIC "-//W3C//DTD SVG 1.0//EN" "http://www.w3.org/TR/2001/REC-SVG-20010904/DTD/svg10.dtd">
<svg version="1.0" xmlns="http://www.w3.org/2000/svg" xmlns:xlink="http://www.w3.org/1999/xlink" x="0px" y="0px"
	 viewBox="0 0 652.467 290.2" enable-background="new 0 0 652.467 290.2" xml:space="preserve">
<g id="Shadow">
</g>
<g id="Legs">
	<g>
		<path fill="#0D7D54" d="M149.454,106.337l-19.813,1.313c0.528-0.088-2.962-2.724,2.48-8.772
			c-8.223,7.475-3.896,10.675-4.48,10.772l19.813-1.313l5.698-2.715c0,0-0.038-0.381-0.06-1.019L149.454,106.337z"/>
		<path fill="#0D7D54" d="M193.767,106.4c-1.99-6.162-4.601-12.397-7.643-17.229c-1.452-1.947-2.894-3.806-4.246-5.429
			c-1.719-1.68-3.528-2.833-5.403-3.257c-5.167-1.167-11.818,4.931-17.068,9.181c-0.593,0.48-1.103,1.033-1.547,1.63
			c5.176-4.224,11.595-9.944,16.615-8.811c7.191,1.624,13.417,13.915,17.292,25.915l7.375-0.25c0,0-0.449-0.706-1.22-1.891
			L193.767,106.4z"/>
	</g>
	<path fill="#398E6F" d="M149.454,107.337l5.698-2.715c0,0-0.995-9.707,4.255-13.957s11.901-10.347,17.068-9.181
		c7.191,1.624,13.417,13.915,17.292,25.915l7.375-0.25c0,0-19.25-30.25-23.917-30.25c-1.754,0-10.958,0.625-32.583,13.5
		s-14.25,18.125-15,18.25"/>
	<path d="M201.142,107.15c-10.79-15.631-17.75-33.25-29-32s-71.75,34.875-71.75,34.875l34.125-1.625c0,0-0.25-10.625,19.25-21.25
		s20.652-11.64,27.625-5.875S201.142,107.15,201.142,107.15z"/>
</g>
<g id="Legs_copy">
	<g>
		<path fill="#0D7D54" d="M498.329,105.337l19.813,1.313c-0.528-0.088,2.962-2.724-2.48-8.772c8.224,7.475,3.896,10.675,4.48,10.772
			l-19.813-1.313l-5.698-2.715c0,0,0.038-0.381,0.06-1.019L498.329,105.337z"/>
		<path fill="#0D7D54" d="M454.017,105.4c1.99-6.162,4.601-12.397,7.643-17.229c1.451-1.947,2.894-3.806,4.246-5.429
			c1.719-1.68,3.527-2.833,5.402-3.257c5.167-1.167,11.818,4.931,17.068,9.181c0.594,0.48,1.103,1.033,1.547,1.63
			c-5.176-4.224-11.595-9.944-16.615-8.811c-7.191,1.624-13.416,13.915-17.291,25.915l-7.375-0.25c0,0,0.449-0.706,1.22-1.891
			L454.017,105.4z"/>
	</g>
	<path fill="#398E6F" d="M498.329,106.337l-5.698-2.715c0,0,0.995-9.707-4.255-13.957s-11.901-10.347-17.068-9.181
		c-7.191,1.624-13.416,13.915-17.291,25.915l-7.375-0.25c0,0,19.25-30.25,23.916-30.25c1.755,0,10.959,0.625,32.584,13.5
		s14.25,18.125,15,18.25"/>
	<path d="M446.642,106.15c10.79-15.631,17.75-33.25,29-32s71.75,34.875,71.75,34.875l-34.125-1.625c0,0,0.25-10.625-19.25-21.25
		s-20.652-11.64-27.625-5.875S446.642,106.15,446.642,106.15z"/>
</g>
<g id="Layer_2">
	<path fill="#12B076" d="M324.342,130.638c4.959,0.175,10.14-0.762,18.884-3.502c24.358-7.631,91.563-17.756,109.665-18.653
		c13.375-0.662,43.188-5.467,100.438,4.83l3.688,0.961l-10.133-8.077c-57.25-10.297-80.523-4.376-93.898-3.714
		c-18.103,0.896-85.354,11.021-109.712,18.653c-9.311,2.917-14.587,3.79-19.857,3.454"/>
	<path fill="#12B076" d="M327.441,130.638c-4.959,0.175-10.14-0.762-18.884-3.502c-24.358-7.631-91.563-17.756-109.665-18.653
		c-13.375-0.662-43.188-5.467-100.438,4.83l-3.688,0.961l10.133-8.077c57.25-10.297,80.523-4.376,93.898-3.714
		c18.103,0.896,85.354,11.021,109.712,18.653c9.311,2.917,14.587,3.79,19.857,3.454"/>
	<path d="M322.383,150.629c3.602-0.042,4.407-0.08,8.509,0.521c6.833,1,9.5,2.906,13.334,14.239s14.665,29.021,16.166,31.011
		s3.167,6.49,9.334,11.156s10.17,7.805,33.503,11.985s43.166,1.182,45.333,1.515s17.666-1.668,26.333-3.834
		s19.833-5.333,27.833-10.333s11.167-11.5,11.167-11.5l10.835-18.666l14.5-29c2.167-7,11.667-14.167,11.667-14.167
		c4.834-10.333,5.12-19.282,5.12-19.282l-3.875-0.961c-57.25-10.297-86.875-5.492-100.25-4.83
		c-18.103,0.896-85.307,11.021-109.665,18.653c-9.917,3.107-15.251,3.896-20.876,3.374"/>
	<path d="M328.4,150.629c-3.602-0.042-4.407-0.08-8.509,0.521c-6.833,1-9.5,2.906-13.334,14.239s-14.665,29.021-16.166,31.011
		s-3.167,6.49-9.334,11.156s-10.17,7.805-33.503,11.985s-43.166,1.182-45.333,1.515s-17.666-1.668-26.333-3.834
		s-19.833-5.333-27.833-10.333s-11.167-11.5-11.167-11.5l-10.835-18.666l-14.5-29c-2.167-7-11.667-14.167-11.667-14.167
		c-4.834-10.333-5.12-19.282-5.12-19.282l3.875-0.961c57.25-10.297,86.875-5.492,100.25-4.83
		c18.103,0.896,85.307,11.021,109.665,18.653c9.917,3.107,15.251,3.896,20.876,3.374"/>
</g>
<g id="Lenses">
	<path fill="#FFFFFF" d="M426.393,116.278c0,0-25,2.628-48.667,8.962s-28.333,14.5-25.5,33.833s11.667,36.332,20.167,43.998
		s34.001,13.165,66.167,12.831s60.5-8.999,71.833-30c11.333-21,15.166-40.333,15.833-46s-1.166-14.832-11.333-18.499
		s-29.001-6.5-47.334-6.5S426.393,116.278,426.393,116.278z"/>
	<path fill="#12B076" d="M510.393,179.903c-11.333,21-39.667,29.666-71.833,30s-57.667-5.165-66.167-12.831
		s-17.334-24.665-20.167-43.998c-0.293-2-0.5-3.875-0.62-5.647c-0.278,3.372-0.03,7.213,0.62,11.647
		c2.833,19.333,11.667,36.332,20.167,43.998s34.001,13.165,66.167,12.831s60.5-8.999,71.833-30c11.333-21,15.166-40.333,15.833-46
		c0.178-1.508,0.169-3.267-0.118-5.102C525.179,141.402,521.192,159.891,510.393,179.903z"/>
	<path fill="#FFFFFF" d="M223.391,117.278c0,0,25,2.628,48.667,8.962s28.333,14.5,25.5,33.833s-11.667,36.332-20.167,43.998
		s-34.001,13.165-66.167,12.831s-60.5-8.999-71.833-30c-11.333-21-15.166-40.333-15.833-46s1.166-14.832,11.333-18.499
		s29.001-6.5,47.334-6.5S223.391,117.278,223.391,117.278z"/>
	<path fill="#12B076" d="M139.391,180.903c11.333,21,39.667,29.666,71.833,30s57.667-5.165,66.167-12.831
		s17.334-24.665,20.167-43.998c0.293-2,0.5-3.875,0.62-5.647c0.278,3.372,0.03,7.213-0.62,11.647
		c-2.833,19.333-11.667,36.332-20.167,43.998s-34.001,13.165-66.167,12.831s-60.5-8.999-71.833-30
		c-11.333-21-15.166-40.333-15.833-46c-0.178-1.508-0.169-3.267,0.118-5.102C124.604,142.402,128.591,160.891,139.391,180.903z"/>
</g>
<g id="LegShifted_copy">
	<path fill="#0D7D54" d="M453.431,115.111c-3.486,6.324-8.949,16.273-9.372,17.289c-0.625,1.5,2,9,8.625,1.5
		c4.769-5.398,7.594-14.357,8.804-18.955"/>
	<path fill="#398E6F" d="M451.398,115.169c-3.487,6.327-8.918,16.218-9.34,17.23c-0.625,1.5,2,9,8.625,1.5
		c4.757-5.385,7.581-14.314,8.794-18.922"/>
</g>
<g id="LegShifted">
	<path fill="#0D7D54" d="M196.02,116.111c3.486,6.324,8.949,16.273,9.372,17.289c0.625,1.5-2,9-8.625,1.5
		c-4.768-5.398-7.594-14.357-8.803-18.955"/>
	<path fill="#398E6F" d="M198.052,116.169c3.487,6.327,8.918,16.218,9.34,17.23c0.625,1.5-2,9-8.625,1.5
		c-4.757-5.385-7.581-14.314-8.794-18.922"/>
</g>
<g id="Reflection_copy" opacity="0.2">
	<path fill="#2496C7" d="M382.363,173.359c-1.587,1.587-1.835,3.914-0.554,5.195l0,0c1.282,1.282,3.608,1.034,5.195-0.554
		l38.447-38.446c1.588-1.588,1.835-3.914,0.553-5.196l0,0c-1.281-1.282-3.607-1.034-5.195,0.554L382.363,173.359z"/>
	<path fill="#2496C7" d="M396.05,173.466c-0.992,0.993-0.953,2.642,0.086,3.682l0,0c1.04,1.04,2.688,1.077,3.682,0.084
		l24.051-24.051c0.993-0.994,0.955-2.641-0.084-3.681l0,0c-1.041-1.041-2.689-1.079-3.683-0.086L396.05,173.466z"/>
	<path fill="#2496C7" d="M380.05,162.466c-0.992,0.993-0.953,2.642,0.086,3.682l0,0c1.04,1.04,2.688,1.077,3.682,0.084
		l24.051-24.051c0.993-0.994,0.955-2.641-0.084-3.681l0,0c-1.041-1.041-2.689-1.079-3.683-0.086L380.05,162.466z"/>
</g>
<g id="Reflection" opacity="0.2">
	<path fill="#2496C7" d="M158.363,170.359c-1.587,1.587-1.835,3.914-0.553,5.195l0,0c1.282,1.282,3.608,1.034,5.195-0.554
		l38.446-38.446c1.588-1.588,1.835-3.914,0.554-5.196l0,0c-1.282-1.282-3.608-1.034-5.195,0.554L158.363,170.359z"/>
	<path fill="#2496C7" d="M172.05,170.466c-0.993,0.993-0.954,2.642,0.086,3.682l0,0c1.04,1.04,2.688,1.077,3.681,0.084
		l24.051-24.051c0.994-0.994,0.956-2.641-0.084-3.681l0,0c-1.041-1.041-2.689-1.079-3.682-0.086L172.05,170.466z"/>
	<path fill="#2496C7" d="M156.05,159.466c-0.993,0.993-0.954,2.642,0.086,3.682l0,0c1.04,1.04,2.688,1.077,3.681,0.084
		l24.051-24.051c0.994-0.994,0.956-2.641-0.084-3.681l0,0c-1.041-1.041-2.689-1.079-3.682-0.086L156.05,159.466z"/>
	<g>
	</g>
	<g>
	</g>
	<g>
	</g>
	<g>
	</g>
	<g>
	</g>
	<g>
	</g>
	<g>
	</g>
	<g>
	</g>
	<g>
	</g>
	<g>
	</g>
	<g>
	</g>
	<g>
	</g>
	<g>
	</g>
	<g>
	</g>
	<g>
	</g>
</g>
</svg>
