<?xml version="1.0" encoding="utf-8"?>
<!-- Generator: Adobe Illustrator 16.0.0, SVG Export Plug-In . SVG Version: 6.00 Build 0)  -->
<!DOCTYPE svg PUBLIC "-//W3C//DTD SVG 1.0//EN" "http://www.w3.org/TR/2001/REC-SVG-20010904/DTD/svg10.dtd">
<svg version="1.0" id="Layer_1" xmlns="http://www.w3.org/2000/svg" xmlns:xlink="http://www.w3.org/1999/xlink" x="0px" y="0px"
	 width="250px" height="250px" viewBox="0 0 250 250" enable-background="new 0 0 250 250" xml:space="preserve">
<g>
	<path fill="#28CD91" d="M51.299,204.151c0,16.499,3.635,15.432,15.035,16.182V228H23.7l-0.3-7.836
		c11.55-0.6,13.199,0.187,13.199-14.963v-17.55c0-4.669-0.193-20.367-1.099-23.484c-1.664-5.727-1.407-4.564-12.1-4.564V152
		l26.225-4.375l2.124,19.628h0.6c5.4-12,15.899-20.25,26.099-20.25c3.203,0,5.777,0.813,7.557,2.276
		c1.804,1.482-5.388,14.032-5.907,13.924c-5.809-1.214-8.25-3.75-11.85-3.75c-5.4,0-11.399,7.8-14.399,18.299
		c-1.65,5.7-2.55,13.35-2.55,21.299V204.151z"/>
	<path fill="#28CD91" d="M153.646,216.195h-0.6c-7.2,10.051-14.85,14.1-25.8,14.1c-22.648,0-35.997-16.895-35.997-41.045
		c0-23.699,17-40,35.997-41.451c9.423-0.72,16.8,3.15,23.699,10.049v-15.299c0-11.25-0.747-20.78-0.99-23.535
		c-1.081-12.264-4.952-9.518-15.302-9.518l0.096-8.246l30.5-4.75l0.096,94.348c0,13.799-0.256,20.723,0.68,24.464
		c1.2,4.799,1.57,3.839,12.52,3.688v9.645l-24.898,1.65V216.195z M150.646,183.047c0-10.5-0.9-14.85-4.05-18.898
		c-4.5-6-11.364-6.901-18.264-6.814c-13.414,0.169-23.166,14.833-23.135,30.813c0.042,21.15,9.735,31.854,24.135,31.854
		c7.05,0,13.514-0.354,17.414-6.354c2.85-4.35,3.899-9.9,3.899-20.699V183.047z"/>
</g>
<g>
	<path fill="#2B2B2B" d="M55.299,200.151c0,16.499,3.635,15.432,15.035,16.182V224H27.7l-0.3-7.836
		c11.55-0.6,13.199,0.187,13.199-14.963v-17.55c0-4.669-0.193-20.367-1.099-23.484c-1.664-5.727-1.407-4.564-12.1-4.564V148
		l26.225-4.375l2.124,19.628h0.6c5.4-12,15.899-20.25,26.099-20.25c3.203,0,5.777,0.813,7.557,2.276
		c1.804,1.482-5.388,14.032-5.907,13.924c-5.809-1.214-8.25-3.75-11.85-3.75c-5.4,0-11.399,7.8-14.399,18.299
		c-1.65,5.7-2.55,13.35-2.55,21.299V200.151z"/>
	<path fill="#2B2B2B" d="M157.646,212.195h-0.6c-7.2,10.051-14.85,14.1-25.8,14.1c-22.648,0-35.997-16.895-35.997-41.045
		c0-23.699,17-40,35.997-41.451c9.423-0.72,16.8,3.15,23.699,10.049v-15.299c0-11.25-0.747-20.78-0.99-23.535
		c-1.081-12.264-4.952-9.518-15.302-9.518l0.096-8.246l30.5-4.75l0.096,94.348c0,13.799-0.256,20.723,0.68,24.464
		c1.2,4.799,1.57,3.839,12.52,3.688v9.645l-24.898,1.65V212.195z M154.646,179.047c0-10.5-0.9-14.85-4.05-18.898
		c-4.5-6-11.364-6.901-18.264-6.814c-13.414,0.169-23.166,14.833-23.135,30.813c0.042,21.15,9.735,31.854,24.135,31.854
		c7.05,0,13.514-0.354,17.414-6.354c2.85-4.35,3.899-9.9,3.899-20.699V179.047z"/>
</g>
</svg>
