<?xml version="1.0" encoding="utf-8"?>
<!-- Generator: Adobe Illustrator 16.0.0, SVG Export Plug-In . SVG Version: 6.00 Build 0)  -->
<!DOCTYPE svg PUBLIC "-//W3C//DTD SVG 1.0//EN" "http://www.w3.org/TR/2001/REC-SVG-20010904/DTD/svg10.dtd">
<svg version="1.0" id="Layer_2" xmlns="http://www.w3.org/2000/svg" xmlns:xlink="http://www.w3.org/1999/xlink" x="0px" y="0px"
	 width="40px" height="40px" viewBox="0 0 40 40" enable-background="new 0 0 40 40" xml:space="preserve">
<path fill="#2D2D2D" d="M29.564,34.056c-1.049,1.121-3.477,1.881-5.651,1.916h-0.239c-7.306,0-8.893-5.372-8.893-8.508v-8.711
	h-2.878c-0.334,0-0.604-0.27-0.604-0.604l0,0v-4.114c0-0.434,0.274-0.82,0.683-0.965c3.751-1.321,4.928-4.594,5.102-7.083
	C17.13,5.322,17.478,5,18.055,5h4.291c0.333,0,0.604,0.27,0.604,0.604v6.967h5.021c0.332,0,0.604,0.269,0.604,0.602v4.944
	c0,0.333-0.271,0.603-0.604,0.603h-5.045v8.057c0,2.024,1.332,2.581,2.156,2.581c0.791-0.02,1.568-0.26,1.957-0.416
	c0.29-0.115,0.544-0.193,0.771-0.137c0.213,0.055,0.352,0.203,0.445,0.477l1.332,3.889C29.695,33.48,29.787,33.817,29.564,34.056z"
	/>
</svg>
