<?xml version="1.0" encoding="utf-8"?>
<!-- Generator: Adobe Illustrator 16.0.0, SVG Export Plug-In . SVG Version: 6.00 Build 0)  -->
<!DOCTYPE svg PUBLIC "-//W3C//DTD SVG 1.0//EN" "http://www.w3.org/TR/2001/REC-SVG-20010904/DTD/svg10.dtd">
<svg version="1.0" id="Layer_1" xmlns="http://www.w3.org/2000/svg" xmlns:xlink="http://www.w3.org/1999/xlink" x="0px" y="0px"
	 width="40px" height="40px" viewBox="0 0 40 40" enable-background="new 0 0 40 40" xml:space="preserve">
<path fill-rule="evenodd" clip-rule="evenodd" fill="#2D2D2D" d="M20.552,4.107c-9.082,0-16.447,7.364-16.447,16.449
	c0,7.267,4.712,13.432,11.249,15.607c0.823,0.149,1.123-0.357,1.123-0.794c0-0.39-0.014-1.425-0.022-2.798
	c-4.575,0.994-5.541-2.205-5.541-2.205c-0.748-1.899-1.826-2.405-1.826-2.405C7.594,26.941,9.2,26.96,9.2,26.96
	c1.651,0.117,2.52,1.696,2.52,1.696c1.467,2.513,3.85,1.787,4.787,1.367c0.149-1.063,0.574-1.789,1.044-2.199
	c-3.652-0.416-7.492-1.826-7.492-8.129c0-1.795,0.641-3.264,1.693-4.413c-0.169-0.417-0.734-2.089,0.161-4.353
	c0,0,1.381-0.442,4.523,1.686c1.312-0.365,2.718-0.547,4.118-0.554c1.397,0.006,2.803,0.189,4.117,0.554
	c3.141-2.128,4.52-1.686,4.52-1.686c0.897,2.264,0.332,3.937,0.164,4.353c1.053,1.149,1.69,2.618,1.69,4.413
	c0,6.319-3.847,7.709-7.511,8.116c0.591,0.509,1.117,1.513,1.117,3.047c0,2.199-0.021,3.972-0.021,4.512
	c0,0.44,0.296,0.951,1.131,0.792C32.292,33.981,37,27.82,37,20.556C37,11.471,29.637,4.107,20.552,4.107z"/>
</svg>
