<?xml version="1.0" encoding="utf-8"?>
<!-- Generator: Adobe Illustrator 16.0.0, SVG Export Plug-In . SVG Version: 6.00 Build 0)  -->
<!DOCTYPE svg PUBLIC "-//W3C//DTD SVG 1.0//EN" "http://www.w3.org/TR/2001/REC-SVG-20010904/DTD/svg10.dtd">
<svg version="1.0" id="Icon" xmlns="http://www.w3.org/2000/svg" xmlns:xlink="http://www.w3.org/1999/xlink" x="0px" y="0px"
	 width="60px" height="60px" viewBox="0 0 60 60" enable-background="new 0 0 60 60" xml:space="preserve">
<circle fill="#28CD91" cx="29" cy="31" r="29"/>
<path id="CompletePath" fill="#262626" d="M31,0C14.984,0,2,12.984,2,29c0,16.017,12.984,29,29,29c16.017,0,29-12.983,29-29
	C60,12.984,47.017,0,31,0z M30,42H18c-2.209,0-4-1.791-4-4V20c0-2.209,1.791-4,4-4h12v4h-8h-4v4v10v4h4h8V42z M51,31h-4v5h-4v-5h-1
	h-5v5h-4v-5h-5v-4h5v-5h4v5h5h1v-5h4v5h4V31z"/>
</svg>
