<?xml version="1.0" encoding="utf-8"?>
<!-- Generator: Adobe Illustrator 16.0.0, SVG Export Plug-In . SVG Version: 6.00 Build 0)  -->
<!DOCTYPE svg PUBLIC "-//W3C//DTD SVG 1.0//EN" "http://www.w3.org/TR/2001/REC-SVG-20010904/DTD/svg10.dtd">
<svg version="1.0" id="Icon" xmlns="http://www.w3.org/2000/svg" xmlns:xlink="http://www.w3.org/1999/xlink" x="0px" y="0px"
	 width="60px" height="60px" viewBox="0 0 60 60" enable-background="new 0 0 60 60" xml:space="preserve">
<circle fill="#00B1FF" cx="29" cy="31" r="29"/>
<g id="Layer_3">
	<path fill="#262626" d="M31,0C14.984,0,2,12.984,2,29c0,16.017,12.984,29,29,29c16.017,0,29-12.983,29-29C60,12.984,47.017,0,31,0z
		 M25,17h-4v4v4c0,1.861-1.278,3.412-3,3.858v0.283c1.722,0.446,3,1.997,3,3.858v3.75V41h4v4h-4v-0.125
		c-2.145,0-3.881-1.751-3.981-3.875H17v-4v-4v-2h-2v-4h2v-2v-4v-4c0-2.209,1.791-4,4-4h4V17z M32.54,33h0.004L29,37.375v-3.887
		c-0.604-0.456-1-1.173-1-1.988c0-1.381,1.119-2.5,2.5-2.5s2.5,1.15,2.5,2.531C33,32.068,32.827,33,32.54,33z M30.5,27
		c-1.381,0-2.5-1.119-2.5-2.5s1.119-2.5,2.5-2.5s2.5,1.119,2.5,2.5S31.881,27,30.5,27z M46,31h-2v2v4v4h-0.019
		c-0.1,2.124-1.837,3.875-3.981,3.875V45h-4v-4h4v-4.25V33c0-1.861,1.278-3.412,3-3.858v-0.283c-1.722-0.446-3-1.997-3-3.858v-4v-4
		h-4v-4h4c2.209,0,4,1.791,4,4v4v4v2h2V31z"/>
</g>
</svg>
