<?xml version="1.0" encoding="utf-8"?>
<!-- Generator: Adobe Illustrator 16.0.0, SVG Export Plug-In . SVG Version: 6.00 Build 0)  -->
<!DOCTYPE svg PUBLIC "-//W3C//DTD SVG 1.0//EN" "http://www.w3.org/TR/2001/REC-SVG-20010904/DTD/svg10.dtd">
<svg version="1.0" id="Icon" xmlns="http://www.w3.org/2000/svg" xmlns:xlink="http://www.w3.org/1999/xlink" x="0px" y="0px"
	 width="60px" height="60px" viewBox="0 0 60 60" enable-background="new 0 0 60 60" xml:space="preserve">
<circle fill="#FF9800" cx="29" cy="31" r="29"/>
<path fill="#262626" d="M31,0C14.984,0,2,12.984,2,29c0,16.017,12.984,29,29,29c16.017,0,29-12.983,29-29C60,12.984,47.017,0,31,0z
	 M18.906,39.094l-9.611-9.555l9.491-9.48l1.823,3.161L14.329,29.5l6.45,6.449L18.906,39.094z M26.248,42h-4.619l14.434-25h4.618
	L26.248,42z M43.428,39.094l-1.872-3.145l6.449-6.449l-6.28-6.281l1.823-3.161l9.49,9.48L43.428,39.094z"/>
</svg>
