<?xml version="1.0" encoding="utf-8"?>
<!-- Generator: Adobe Illustrator 16.0.0, SVG Export Plug-In . SVG Version: 6.00 Build 0)  -->
<!DOCTYPE svg PUBLIC "-//W3C//DTD SVG 1.0//EN" "http://www.w3.org/TR/2001/REC-SVG-20010904/DTD/svg10.dtd">
<svg version="1.0" id="Icon" xmlns="http://www.w3.org/2000/svg" xmlns:xlink="http://www.w3.org/1999/xlink" x="0px" y="0px"
	 width="60px" height="60px" viewBox="0 0 60 60" enable-background="new 0 0 60 60" xml:space="preserve">
<circle fill="#FFC200" cx="29" cy="31" r="29"/>
<path fill="#262626" d="M31,0C14.984,0,2,12.984,2,29c0,16.017,12.984,29,29,29c16.017,0,29-12.983,29-29C60,12.984,47.017,0,31,0z
	 M29,22v15c0,2.209-1.791,4-4,4h-8v-4h4h4v-4V22h-8v-4h8h4V22z M46,22h-4h-4v1v3v1h4c2.209,0,4,1.791,4,4v6c0,2.209-1.791,4-4,4h-8
	v-4h4h4v-2v-2v-2h-4c-2.209,0-4-1.791-4-4v-5c0-2.209,1.791-4,4-4h8V22z"/>
</svg>
