<?xml version="1.0" encoding="utf-8"?>
<!-- Generator: Adobe Illustrator 16.0.0, SVG Export Plug-In . SVG Version: 6.00 Build 0)  -->
<!DOCTYPE svg PUBLIC "-//W3C//DTD SVG 1.0//EN" "http://www.w3.org/TR/2001/REC-SVG-20010904/DTD/svg10.dtd">
<svg version="1.0" id="Icon" xmlns="http://www.w3.org/2000/svg" xmlns:xlink="http://www.w3.org/1999/xlink" x="0px" y="0px"
	 width="60px" height="60px" viewBox="0 0 60 60" enable-background="new 0 0 60 60" xml:space="preserve">
<circle fill="#0086FF" cx="29" cy="31" r="29"/>
<g>
	<polygon fill="#262626" points="20,23 20,30 22,30 26,30 26,27 26,26 26,23 22,23 	"/>
	<path fill="#262626" d="M31,0C14.984,0,2,12.984,2,29c0,16.017,12.984,29,29,29c16.017,0,29-12.983,29-29C60,12.984,47.017,0,31,0z
		 M30,30c0,2.209-1.791,4-4,4h-6v8h-4V23v-4h4h6c2.209,0,4,1.791,4,4V30z M45,28h-5h-4v3h4h1c2.209,0,4,1.791,4,4v4h-0.142
		C44.496,40.4,43.4,41.496,42,41.858V42H32v-4h5h4v-3h-4h-1c-2.209,0-4-1.791-4-4v-3c0-2.209,1.791-4,4-4h9V28z"/>
</g>
</svg>
