<?xml version="1.0" encoding="utf-8"?>
<!-- Generator: Adobe Illustrator 16.0.0, SVG Export Plug-In . SVG Version: 6.00 Build 0)  -->
<!DOCTYPE svg PUBLIC "-//W3C//DTD SVG 1.1//EN" "http://www.w3.org/Graphics/SVG/1.1/DTD/svg11.dtd">
<svg version="1.1" id="Icon" xmlns="http://www.w3.org/2000/svg" xmlns:xlink="http://www.w3.org/1999/xlink" x="0px" y="0px"
	 width="60px" height="60px" viewBox="0 0 60 60" enable-background="new 0 0 60 60" xml:space="preserve">
<g opacity="0.07">
	<polygon fill="#333333" points="35.0,39.0 35.0,34.0 40,34.0 41.0,34.0 41.0,39.0 45.0,39.0 45.0,34.0 50.0,34.0 50.0,30.0 
		45.0,30.0 45.0,25.0 41.0,25.0 41.0,30.0 40,30.0 35.0,30.0 35.0,25.0 31.0,25.0 31.0,30.0 26.0,30.0 26.0,34.0 31.0,34.0 
		31.0,39.0 	"/>
	<path fill="#333333" d="M15.0,41.0v-4v-10v-4H20h8.0v-4h-11c-3.709,0-6,1.791-6,4v17c0,4,2,5,6,5h11v-4H20H15.0z"/>
</g>
<g>
	<polygon fill="#28CD91" points="37.0,37.0 37.0,32.0 42,32.0 43.0,32.0 43.0,37.0 47.0,37.0 47.0,32.0 52.0,32.0 52.0,28.0 
		47.0,28.0 47.0,23.0 43.0,23.0 43.0,28.0 42,28.0 37.0,28.0 37.0,23.0 33.0,23.0 33.0,28.0 28.0,28.0 28.0,32.0 33.0,32.0 
		33.0,37.0 	"/>
	<path fill="#28CD91" d="M17.0,39.0v-4v-10v-4H22h8.0v-4h-11c-3.709,0-6,1.791-6,4v18c0,2.209,2.291,4,4.0,4h12.0v-4H22H17.0z"/>
</g>
</svg>
