<?xml version="1.0" encoding="utf-8"?>
<!-- Generator: Adobe Illustrator 16.0.0, SVG Export Plug-In . SVG Version: 6.00 Build 0)  -->
<!DOCTYPE svg PUBLIC "-//W3C//DTD SVG 1.1//EN" "http://www.w3.org/Graphics/SVG/1.1/DTD/svg11.dtd">
<svg version="1.1" id="Icon" xmlns="http://www.w3.org/2000/svg" xmlns:xlink="http://www.w3.org/1999/xlink" x="0px" y="0px"
	 width="60px" height="60px" viewBox="0 0 60 60" enable-background="new 0 0 60 60" xml:space="preserve">
<g opacity="0.07">
	<path d="M38,35v3.75V43h-4v4h4v-0.125c2.145,0,3.881-1.751,3.98-3.875H42v-4v-4v-2h2v-3.999h-2v-2v-4v-4c0-2.209-1.791-4-4-4h-4v4
		h4v4v4c0,1.861,1.277,3.412,3,3.858v0.283C39.277,31.588,38,33.139,38,35z"/>
	<path d="M30.544,35H30.54c0.287,0,0.46-0.932,0.46-1.469C31,32.15,29.881,31,28.5,31S26,32.119,26,33.5
		c0,0.814,0.396,1.532,1,1.988v3.887L30.544,35z"/>
	<circle cx="28.5" cy="26.5" r="2.5"/>
	<path d="M15,35v4v4h0.019c0.1,2.124,1.836,3.875,3.981,3.875V47h4v-4h-4v-4.251v-3.75c0-1.86-1.278-3.412-3-3.858v-0.283
		c1.722-0.445,3-1.997,3-3.857v-4v-4h4v-4h-4c-2.209,0-4,1.791-4,4v4v4v2h-2v4h2V35z"/>
</g>
<g>
	<path fill="#00B1FF" d="M40,33v3.75V41h-4v4h4v-0.125c2.145,0,3.881-1.751,3.98-3.875H44v-4v-4v-2h2v-3.999h-2v-2v-4v-4
		c0-2.209-1.791-4-4-4h-4v4h4v4v4c0,1.861,1.277,3.412,3,3.858v0.283C41.277,29.588,40,31.139,40,33z"/>
	<path fill="#00B1FF" d="M32.544,33H32.54c0.287,0,0.46-0.932,0.46-1.469C33,30.15,31.881,29,30.5,29S28,30.119,28,31.5
		c0,0.814,0.396,1.532,1,1.988v3.887L32.544,33z"/>
	<circle fill="#00B1FF" cx="30.5" cy="24.5" r="2.5"/>
	<path fill="#00B1FF" d="M17,33v4v4h0.019c0.1,2.124,1.836,3.875,3.981,3.875V45h4v-4h-4v-4.251v-3.75c0-1.86-1.278-3.412-3-3.858
		v-0.283c1.722-0.446,3-1.997,3-3.858v-4v-4h4v-4h-4c-2.209,0-4,1.791-4,4v4v4v2h-2v4h2V33z"/>
</g>
</svg>
