<?xml version="1.0" encoding="utf-8"?>
<!-- Generator: Adobe Illustrator 16.0.0, SVG Export Plug-In . SVG Version: 6.00 Build 0)  -->
<!DOCTYPE svg PUBLIC "-//W3C//DTD SVG 1.1//EN" "http://www.w3.org/Graphics/SVG/1.1/DTD/svg11.dtd">
<svg version="1.1" id="Icon" xmlns="http://www.w3.org/2000/svg" xmlns:xlink="http://www.w3.org/1999/xlink" x="0px" y="0px"
	 width="60px" height="60px" viewBox="0 0 60 60" enable-background="new 0 0 60 60" xml:space="preserve">
<g opacity="0.07">
	<polygon points="16.906,41.094 18.779,37.949 12.329,31.5 18.609,25.22 16.786,22.059 7.295,31.539 	"/>
	<polygon points="34.063,19 19.629,44 24.248,44 38.682,19 	"/>
	<polygon points="41.428,41.094 51.038,31.538 41.548,22.058 39.725,25.219 46.005,31.5 39.557,37.949 	"/>
</g>
<g>
	<polygon fill="#FF9800" points="18.906,39.094 20.779,35.949 14.329,29.5 20.609,23.22 18.786,20.059 9.295,29.539 	"/>
	<polygon fill="#FF9800" points="36.063,17 22.217,40.981 22.217,42 26.248,42 40.13,17.956 40.125,17 	"/>
	<polygon fill="#FF9800" points="43.428,39.094 53.038,29.538 43.548,20.058 41.725,23.219 48.005,29.5 41.557,35.949 	"/>
</g>
</svg>
