<?xml version="1.0" encoding="utf-8"?>
<!-- Generator: Adobe Illustrator 16.0.0, SVG Export Plug-In . SVG Version: 6.00 Build 0)  -->
<!DOCTYPE svg PUBLIC "-//W3C//DTD SVG 1.1//EN" "http://www.w3.org/Graphics/SVG/1.1/DTD/svg11.dtd">
<svg version="1.1" id="Icon" xmlns="http://www.w3.org/2000/svg" xmlns:xlink="http://www.w3.org/1999/xlink" x="0px" y="0px"
	 width="60px" height="60px" viewBox="0 0 60 60" enable-background="new 0 0 60 60" xml:space="preserve">
<g opacity="0.07">
	<path d="M44,39v-6c0-2.209-1.791-4-4-4h-4v-1v-3v-1h4h4v-4h-8c-2.209,0-4,1.791-4,4v5c0,2.209,1.791,4,4,4h4v2v2v2h-4h-4v4h8
		C42.209,43,44,41.209,44,39z"/>
	<path d="M15,20v4h8v11v4h-4h-4v4h8c2.209,0,4-1.791,4-4V24v-4h-4H15z"/>
</g>
<g>
	<path fill="#FBC02D" d="M46,37v-6c0-2.209-1.791-4-4-4h-4v-1v-3v-1h4h4v-4h-8c-2.209,0-4,1.791-4,4v5c0,2.209,1.791,4,4,4h4v2v2v2
		h-4h-4v4h8C44.209,41,46,39.209,46,37z"/>
	<path fill="#FBC02D" d="M17,18v4h8v11v4h-4h-4v4h8c2.209,0,4-1.791,4-4V22v-4h-4H17z"/>
</g>
</svg>
