<?xml version="1.0" encoding="utf-8"?>
<!-- Generator: Adobe Illustrator 16.0.0, SVG Export Plug-In . SVG Version: 6.00 Build 0)  -->
<!DOCTYPE svg PUBLIC "-//W3C//DTD SVG 1.1//EN" "http://www.w3.org/Graphics/SVG/1.1/DTD/svg11.dtd">
<svg version="1.1" id="Icon" xmlns="http://www.w3.org/2000/svg" xmlns:xlink="http://www.w3.org/1999/xlink" x="0px" y="0px"
	 width="60px" height="60px" viewBox="0 0 60 60" enable-background="new 0 0 60 60" xml:space="preserve">
<g opacity="0.07">
	<path d="M30,30v3c0,2.209,1.791,4,4,4h1h4v3h-4h-5v4h10v-0.143c1.4-0.361,2.496-1.457,2.857-2.857H43v-4c0-2.209-1.791-4-4-4h-1h-4
		v-3h4h5v-4h-9C31.791,26,30,27.791,30,30z"/>
	<path d="M18,21h-4v4v19h4v-8h6c2.209,0,4-1.791,4-4v-7c0-2.209-1.791-4-4-4H18z M24,28v1v3h-4h-2v-7h2h4V28z"/>
</g>
<g>
	<path fill="#0086FF" d="M32,28v3c0,2.209,1.791,4,4,4h1h4v3h-4h-5v4h10v-0.143c1.4-0.361,2.496-1.457,2.857-2.857H45v-4
		c0-2.209-1.791-4-4-4h-1h-4v-3h4h5v-4h-9C33.791,24,32,25.791,32,28z"/>
	<path fill="#0086FF" d="M20,19h-4v4v19h4v-8h6c2.209,0,4-1.791,4-4v-7c0-2.209-1.791-4-4-4H20z M26,26v1v3h-4h-2v-7h2h4V26z"/>
</g>
</svg>
